<?xml version="1.0" standalone="no"?>
<!DOCTYPE svg PUBLIC "-//W3C//DTD SVG 20010904//EN"
 "http://www.w3.org/TR/2001/REC-SVG-20010904/DTD/svg10.dtd">
<svg version="1.0" xmlns="http://www.w3.org/2000/svg"
 width="1903.000000pt" height="935.000000pt" viewBox="0 0 1903.000000 935.000000"
 preserveAspectRatio="xMidYMid meet">
<metadata>
Created by potrace 1.16, written by Peter Selinger 2001-2019
</metadata>
<g transform="translate(0.000000,935.000000) scale(0.100000,-0.100000)"
fill="#000000" stroke="none">
<path d="M0 4675 l0 -4675 3961 0 3960 0 177 35 c262 52 294 55 392 39 48 -8
150 -13 235 -13 284 3 563 -11 742 -37 170 -25 177 -25 765 -22 591 3 593 3
638 26 25 12 56 30 71 39 24 15 27 15 69 -13 l44 -29 170 0 c94 0 259 2 367 5
178 5 199 3 216 -13 18 -16 112 -17 1670 -17 1647 0 1651 0 1656 20 8 29 91
63 157 64 65 1 123 -27 128 -62 l3 -22 366 0 366 0 -41 30 c-109 79 -88 190
37 190 21 0 52 -7 67 -15 16 -8 40 -15 54 -15 14 0 51 -9 81 -19 39 -14 80
-20 135 -19 55 1 89 -4 110 -15 32 -16 124 -112 124 -128 0 -5 399 -9 946 -9
l946 0 -27 35 c-14 20 -49 56 -76 82 -38 36 -49 53 -47 72 9 78 246 30 320
-65 15 -19 23 -22 38 -14 51 27 110 -13 110 -75 l0 -35 50 0 50 0 0 1254 c0
1047 -2 1255 -14 1259 -7 3 -94 6 -192 7 -272 2 -468 15 -493 32 -17 12 -19
17 -8 26 22 19 467 62 635 62 l72 0 0 3355 0 3355 -9515 0 -9515 0 0 -4675z
m12630 4149 c2010 -11 1896 -9 1925 -28 13 -9 32 -30 40 -47 19 -37 35 -34 56
11 9 19 25 37 35 41 28 11 259 11 288 0 26 -10 28 -22 8 -58 -16 -29 -15 -98
2 -131 8 -15 26 -38 41 -52 41 -38 52 -67 60 -156 7 -79 6 -81 -20 -98 -31
-20 -55 -15 -105 25 -64 51 -110 50 -175 -1 -47 -38 -64 -38 -132 1 -63 36
-98 34 -114 -9 -6 -15 -15 -35 -21 -45 -7 -15 2 -30 47 -79 92 -100 93 -125 7
-166 -66 -32 -75 -54 -55 -124 15 -52 9 -93 -17 -123 -30 -34 -50 -82 -50
-119 0 -31 5 -38 39 -55 48 -25 97 -28 176 -13 108 22 138 62 115 157 -10 40
-11 62 -3 73 11 19 58 46 93 55 22 5 27 1 42 -36 10 -23 24 -87 32 -142 8 -55
22 -115 31 -133 23 -44 8 -62 -47 -57 -53 6 -105 -17 -148 -64 -45 -50 -69
-57 -100 -28 -120 108 -134 110 -208 38 -36 -35 -60 -51 -83 -53 -31 -3 -41
-13 -53 -50 -5 -17 -163 -18 -3139 -18 l-3134 0 -6 107 c-4 58 -7 215 -7 347
0 253 -14 499 -31 552 -13 42 -81 114 -107 114 -29 0 -82 -47 -100 -90 -11
-27 -17 -102 -23 -325 -4 -159 -13 -369 -19 -465 -5 -96 -7 -189 -4 -207 l6
-33 -2221 0 -2221 0 0 -1030 0 -1030 1106 0 1105 0 -15 -22 c-23 -32 -20 -50
14 -93 35 -44 36 -56 10 -138 -23 -74 -50 -202 -50 -236 0 -29 36 -71 60 -71
27 0 69 38 91 82 28 55 26 126 -5 221 -31 92 -31 105 -9 152 22 46 125 105
183 105 52 0 237 -54 326 -95 85 -39 94 -56 91 -180 -3 -104 12 -138 69 -166
40 -19 56 -21 152 -16 59 3 143 10 187 16 47 6 217 8 415 6 409 -5 614 -15
632 -33 14 -14 17 -261 4 -467 -10 -150 -16 -162 -87 -171 -27 -4 -57 -13 -66
-20 -17 -13 -15 -16 18 -46 20 -18 56 -48 79 -67 l42 -34 -4 -87 c-3 -71 -9
-98 -31 -140 -26 -50 -27 -56 -27 -225 0 -96 -4 -185 -10 -199 -5 -15 -30 -39
-55 -54 -74 -44 -95 -126 -36 -138 74 -15 102 -27 119 -52 25 -34 42 -95 42
-147 0 -22 11 -64 25 -93 16 -35 25 -72 25 -103 0 -56 -21 -116 -44 -125 -9
-3 -21 -24 -26 -45 -13 -46 -19 -47 -57 -15 -25 22 -28 31 -31 103 -2 46 3
104 12 142 9 39 12 71 6 85 -10 26 -45 59 -87 80 -31 15 -33 15 -62 -9 -45
-38 -48 -75 -15 -158 l28 -70 -27 -48 c-20 -36 -27 -63 -27 -102 0 -28 -3 -62
-6 -74 -7 -26 -50 -43 -110 -43 -24 0 -45 -4 -48 -9 -3 -4 -19 -11 -36 -14
-31 -7 -42 -27 -15 -27 8 0 15 -8 15 -18 0 -10 11 -29 25 -42 19 -18 25 -33
25 -68 0 -29 6 -52 17 -65 15 -16 15 -18 3 -16 -9 2 -15 0 -15 -6 0 -13 28 -6
37 8 4 7 29 35 56 62 42 43 50 57 56 103 4 29 11 50 16 47 5 -3 12 0 15 6 5 7
32 9 86 4 78 -7 79 -7 109 23 16 17 30 38 30 46 0 12 10 16 34 16 22 0 45 9
64 25 37 31 83 32 147 5 61 -26 103 -25 198 4 57 18 98 40 153 81 82 62 96 84
83 130 -15 52 -11 85 10 85 11 0 22 -4 25 -8 25 -41 54 -392 35 -423 -8 -13
-39 -18 -241 -37 -63 -6 -82 -12 -105 -33 -41 -39 -52 -39 -121 -2 -35 18 -71
33 -81 33 -27 0 -106 -54 -186 -128 -40 -37 -88 -76 -106 -87 -31 -19 -34 -25
-39 -81 -5 -60 -28 -110 -56 -121 -47 -18 -174 56 -174 102 0 13 -7 30 -15 39
-8 8 -15 23 -15 34 0 11 -12 33 -27 50 -38 43 -69 35 -75 -16 -4 -30 2 -47 29
-87 18 -27 37 -55 42 -61 12 -15 32 -114 25 -125 -12 -21 35 -65 89 -82 89
-28 133 -83 86 -107 -36 -20 -78 -1 -135 58 -39 41 -56 53 -66 45 -7 -5 -40
-16 -72 -23 -39 -9 -60 -20 -63 -31 -3 -9 -15 -21 -27 -27 -28 -13 -48 -75
-35 -109 5 -14 27 -50 49 -81 79 -109 38 -137 -136 -91 -43 12 -106 28 -139
36 -83 20 -105 36 -105 76 0 18 5 38 12 45 15 15 -7 66 -26 59 -7 -3 -28 4
-46 15 -24 14 -35 16 -40 7 -5 -6 -13 -8 -20 -4 -8 5 -11 4 -7 -2 7 -11 -11
-22 -51 -29 -25 -5 -29 8 -7 26 8 7 12 17 8 24 -4 6 1 5 10 -3 20 -16 21 -12
5 26 -6 15 -11 31 -10 34 1 4 -17 23 -38 43 -22 20 -40 33 -40 29 0 -4 -4 -2
-8 4 -5 7 -39 21 -78 31 -38 10 -94 32 -125 49 -50 26 -81 39 -114 48 -5 1
-13 3 -17 5 -18 6 -32 8 -97 9 -61 1 -69 3 -74 22 -12 44 11 303 33 369 24 72
23 136 -4 250 -9 36 -16 97 -16 136 0 91 -25 213 -57 281 -14 29 -53 84 -87
121 -34 37 -77 87 -96 111 -41 53 -113 101 -153 101 -27 0 -29 -2 -23 -27 8
-29 55 -102 82 -123 52 -44 108 -180 124 -302 5 -45 18 -105 27 -133 40 -116
3 -569 -50 -631 l-22 -25 -63 15 c-35 8 -70 12 -77 10 -7 -3 -31 4 -54 15 -51
26 -87 26 -153 0 -51 -20 -55 -20 -115 -4 -48 13 -81 15 -142 10 l-80 -7 -48
45 c-61 57 -86 64 -138 37 -51 -26 -55 -26 -160 10 -105 36 -148 37 -267 9
-49 -11 -100 -18 -113 -15 -29 7 -45 51 -45 120 0 28 -7 89 -15 136 -17 96
-13 130 23 215 22 50 27 82 32 197 6 122 10 142 35 194 31 63 161 206 246 271
27 20 49 42 49 48 0 13 -57 35 -91 35 -58 0 -224 -136 -278 -228 -188 -324
-187 -318 -185 -672 1 -140 3 -302 5 -360 4 -142 -4 -159 -134 -255 -55 -41
-108 -75 -118 -75 -38 0 -48 -41 -51 -197 -2 -130 0 -156 20 -217 24 -74 29
-171 9 -197 -34 -45 -215 -98 -366 -106 -93 -5 -108 -9 -129 -30 -13 -13 -22
-29 -20 -35 10 -29 58 -50 133 -59 85 -9 148 -35 153 -61 2 -10 -6 -30 -17
-44 -12 -15 -21 -38 -21 -51 0 -30 -48 -52 -128 -60 -63 -7 -82 8 -82 62 0 36
-16 53 -77 84 -74 37 -116 23 -155 -52 -18 -35 -22 -56 -20 -129 l2 -87 -39
-20 c-21 -11 -49 -36 -60 -55 -25 -39 -39 -47 -62 -35 -20 10 -179 193 -179
206 0 4 26 8 58 8 60 0 124 29 136 62 10 25 -21 61 -64 74 -34 10 -46 10 -79
-6 -22 -9 -52 -31 -68 -47 -27 -28 -30 -29 -98 -23 -38 4 -84 11 -102 17 -48
14 -53 47 -36 219 24 245 -7 596 -67 760 -81 219 -130 284 -384 509 -163 144
-162 142 -158 248 7 216 6 939 -1 1487 -4 330 -10 1244 -12 2030 -2 787 -9
1572 -14 1745 -15 460 -14 907 1 916 7 4 28 11 48 14 44 8 9037 3 10740 -6z
m2415 -759 c49 -48 26 -113 -48 -138 -69 -23 -93 0 -62 59 8 16 15 36 15 44 0
25 30 60 51 60 11 0 31 -11 44 -25z m475 -1755 l0 -830 -5995 0 -5995 0 0 830
0 830 5995 0 5995 0 0 -830z m-6965 -1050 c-51 -24 -259 -40 -505 -39 -188 0
-251 9 -290 39 -25 19 -22 20 405 19 427 -1 430 -1 390 -19z m6258 -2 c-12
-35 -8 -74 11 -103 20 -30 41 -32 81 -5 51 34 115 20 115 -24 0 -33 -22 -47
-93 -62 -34 -7 -76 -18 -94 -25 -27 -11 -40 -10 -85 4 -60 19 -240 16 -264 -4
-34 -28 -43 -131 -19 -219 8 -30 18 -85 21 -121 8 -77 1 -86 -91 -135 -27 -14
-69 -44 -92 -65 -24 -21 -51 -39 -62 -39 -11 0 -32 16 -46 35 -36 46 -52 49
-120 24 -51 -19 -64 -20 -108 -10 -43 10 -55 9 -94 -9 -25 -11 -65 -20 -88
-20 -24 0 -69 -10 -100 -22 -56 -21 -58 -21 -124 -4 -55 14 -75 16 -110 6 -23
-6 -123 -12 -224 -13 -155 -2 -187 1 -219 16 -21 9 -50 17 -66 17 -35 0 -114
-51 -149 -96 -24 -32 -27 -34 -48 -20 -21 14 -24 13 -42 -7 -43 -48 -93 -231
-93 -342 0 -99 -17 -223 -39 -287 -10 -30 -22 -78 -26 -108 -4 -29 -14 -69
-22 -89 -9 -20 -19 -84 -24 -144 -10 -121 -27 -165 -90 -230 -21 -23 -39 -48
-39 -57 0 -8 17 -24 38 -35 l37 -20 3 -77 c3 -94 -7 -142 -33 -147 -11 -2 -42
2 -70 9 -55 13 -58 12 -141 -40 -51 -33 -139 -37 -212 -10 -58 21 -74 22 -222
18 -106 -4 -165 -10 -175 -18 -12 -10 -22 -9 -50 4 -42 20 -45 42 -14 110 25
58 22 100 -8 104 -11 2 -62 -17 -112 -42 -79 -40 -99 -46 -155 -46 -35 0 -81
-6 -102 -14 -59 -20 -199 -29 -211 -14 -19 25 7 79 70 143 59 60 65 64 122 70
151 17 177 40 173 149 l-3 71 -38 3 c-37 3 -76 -11 -137 -49 -40 -26 -138 -45
-153 -30 -8 8 -12 62 -12 179 -1 113 -5 177 -13 197 -10 21 -11 57 -6 127 l6
97 -35 63 c-20 35 -44 71 -55 81 -43 39 -139 90 -179 94 -41 5 -43 4 -58 -30
-19 -46 -19 -105 0 -150 22 -52 19 -95 -10 -150 -23 -41 -25 -55 -19 -106 6
-56 6 -58 -35 -105 -23 -26 -41 -56 -41 -66 0 -11 12 -44 27 -75 26 -52 26
-58 15 -113 -7 -32 -12 -77 -12 -100 0 -53 -22 -107 -48 -121 -31 -16 -76 -13
-103 7 -59 45 -118 50 -313 26 -32 -4 -69 -1 -105 9 -31 9 -73 19 -93 22 -29
4 -47 17 -75 51 -42 50 -98 84 -139 84 -30 0 -89 33 -103 58 -9 15 -12 15 -26
-5 -9 -13 -32 -25 -53 -29 -40 -7 -189 -59 -264 -92 -76 -33 -98 -32 -124 6
-24 36 -39 93 -56 218 -18 133 -2 154 95 128 36 -10 80 -13 147 -9 111 7 134
-1 166 -59 12 -21 38 -58 58 -82 42 -50 63 -48 85 4 14 34 7 57 -43 131 -39
58 -44 85 -20 119 31 45 99 15 128 -57 13 -34 22 -42 58 -51 92 -23 127 -41
148 -76 25 -39 57 -45 65 -11 13 51 106 86 227 87 78 0 128 20 150 59 9 14 19
62 23 106 7 78 31 155 54 169 18 11 13 61 -8 80 -50 45 -188 58 -386 36 -49
-6 -142 -15 -205 -20 -129 -11 -130 -11 -162 -103 -27 -78 -64 -127 -94 -127
-43 0 -115 83 -139 160 -16 51 -27 70 -53 87 -41 27 -160 40 -218 24 -54 -15
-107 -14 -146 4 -18 8 -98 25 -178 39 -80 13 -158 29 -175 36 l-30 12 25 19
c14 11 40 30 59 42 28 18 37 32 46 74 7 28 20 64 29 78 15 22 18 61 22 253 3
125 4 267 4 315 -2 106 7 176 24 200 12 16 16 16 49 2 56 -23 129 -20 155 8
30 32 42 70 42 133 l0 54 2886 0 2885 0 -8 -22z m-6449 -438 c38 -14 49 -71
44 -237 -3 -129 -5 -145 -24 -164 -36 -35 -153 -38 -187 -4 -20 19 -40 193
-36 300 3 72 7 89 23 101 23 16 141 19 180 4z m6351 -127 c26 -75 48 -87 133
-71 52 10 64 9 86 -6 14 -9 26 -23 26 -31 0 -22 -40 -54 -77 -61 -36 -7 -102
16 -124 43 -7 7 -36 20 -65 29 -72 21 -99 43 -91 76 10 38 46 78 70 78 18 0
26 -11 42 -57z m309 -533 c14 -17 31 -50 37 -73 6 -23 20 -59 30 -79 26 -50
69 -187 69 -219 0 -14 -5 -30 -12 -37 -28 -28 -150 -4 -175 34 -12 19 -13 35
-4 93 16 99 14 129 -9 158 -11 14 -20 35 -20 46 0 23 40 107 51 107 4 0 19
-14 33 -30z m-2473 -1712 c8 -14 9 -50 5 -112 -5 -69 -3 -101 8 -133 23 -64
11 -106 -43 -160 -25 -26 -64 -54 -87 -65 -65 -28 -69 -38 -55 -117 7 -37 12
-86 13 -108 0 -40 -16 -83 -31 -83 -4 0 -28 -15 -52 -34 -54 -40 -91 -50 -164
-41 -76 10 -113 38 -137 103 -11 29 -37 71 -59 94 -38 40 -40 41 -90 35 -76
-9 -83 -19 -55 -75 13 -26 33 -78 45 -117 l22 -69 -20 -66 c-27 -89 -53 -111
-138 -122 -152 -18 -222 48 -211 202 9 128 51 178 181 215 31 9 57 20 57 25 0
4 -23 27 -51 51 -51 43 -51 43 -47 94 3 34 20 83 50 146 40 82 58 106 140 185
105 102 130 113 209 94 36 -9 64 -25 100 -59 55 -50 58 -61 46 -147 -6 -42 -4
-55 11 -74 16 -19 24 -21 61 -15 26 4 56 19 78 38 35 31 35 31 29 97 -6 73
-16 53 105 203 34 42 63 47 80 15z m-10876 -64 c98 -85 99 -114 5 -114 -80 0
-165 121 -118 168 21 21 35 14 113 -54z m12513 -5 c29 -54 59 -85 100 -103 42
-19 52 -33 77 -105 31 -90 19 -113 -91 -170 -34 -18 -67 -44 -75 -58 -12 -22
-11 -29 9 -63 30 -52 28 -78 -8 -122 -28 -34 -137 -98 -166 -98 -14 0 -33 -30
-38 -58 -2 -9 -7 -35 -11 -57 -5 -22 -9 -62 -11 -90 -1 -27 -5 -64 -9 -81 -11
-47 13 -61 78 -45 72 17 258 30 279 20 10 -5 29 -29 44 -54 34 -59 31 -73 -69
-288 -21 -46 -28 -70 -20 -78 13 -13 161 -29 278 -29 199 -1 343 -45 345 -107
0 -6 -28 -25 -62 -41 -53 -25 -80 -30 -168 -35 -68 -3 -128 -13 -170 -27 -75
-25 -182 -23 -262 5 -60 21 -72 36 -78 99 l-5 51 -126 6 c-150 7 -190 14 -242
41 -49 24 -58 15 -50 -53 6 -47 -18 -142 -39 -155 -5 -3 -25 9 -44 27 l-34 33
-94 -32 c-65 -22 -113 -32 -155 -32 -33 0 -118 -11 -188 -24 -71 -14 -145 -27
-166 -31 -69 -11 -54 -57 23 -70 67 -12 120 -36 120 -55 0 -26 -42 -33 -106
-19 -44 10 -71 9 -161 -5 -164 -27 -326 -65 -395 -93 -117 -47 -275 -63 -315
-30 -18 13 -16 24 8 48 33 33 18 46 -60 51 -80 4 -111 24 -111 70 0 44 36 105
83 139 46 34 193 109 214 109 36 0 132 132 133 182 0 9 -22 43 -50 74 -27 31
-50 66 -50 76 0 27 114 153 156 173 71 34 160 -17 192 -110 24 -68 52 -81 136
-65 33 7 111 36 171 65 158 76 304 125 375 125 64 0 71 5 88 66 7 22 21 49 32
59 21 19 27 78 12 102 -5 7 -30 17 -56 22 -44 8 -57 18 -137 102 -114 122
-116 138 -23 180 37 16 80 40 96 54 25 21 40 25 94 25 91 0 104 9 104 71 0 34
10 73 30 119 17 38 30 73 30 79 0 28 28 64 71 91 27 16 56 44 65 62 22 43 32
49 74 42 22 -4 58 2 95 14 83 28 92 30 158 31 55 1 59 -1 75 -30z m2554 8 c4
-7 11 -27 14 -46 6 -29 3 -38 -20 -58 -32 -27 -87 -31 -107 -7 -7 9 -14 34
-14 56 0 54 33 82 84 73 20 -4 39 -12 43 -18z m-8754 -159 c5 -45 -34 -105
-95 -146 -110 -74 -109 -73 -135 -63 -29 11 -68 56 -68 79 0 25 63 75 150 120
99 51 143 54 148 10z m966 -121 c75 -62 85 -132 24 -165 -59 -33 -87 -62 -94
-100 -13 -75 -69 -97 -103 -42 -22 38 -39 267 -21 300 32 60 124 63 194 7z
m5853 -132 c37 -25 73 -56 80 -68 6 -12 19 -74 29 -137 24 -151 35 -164 132
-155 58 6 81 2 166 -24 99 -31 100 -31 154 -15 77 22 159 20 191 -4 23 -17 26
-27 26 -82 0 -51 4 -65 22 -79 49 -41 153 -177 194 -256 l26 -50 69 -1 c95 -1
94 -1 94 -31 0 -37 -34 -91 -65 -105 -21 -9 -32 -8 -61 5 -65 31 -79 23 -114
-68 -9 -22 -23 -41 -33 -43 -20 -4 -75 50 -122 118 -33 47 -28 71 23 101 69
41 76 65 42 144 -27 63 -119 185 -139 185 -9 0 -45 -9 -81 -21 -172 -54 -214
-55 -248 -7 -7 10 -22 22 -32 28 -16 9 -25 2 -59 -44 -96 -129 -136 -143 -206
-72 -35 37 -52 46 -101 56 -33 6 -81 18 -109 26 -124 34 -275 55 -316 44 -57
-17 -49 21 36 159 25 40 72 110 104 155 32 44 80 117 106 161 55 93 82 125
107 125 9 0 48 -20 85 -45z m-3380 -26 c60 -29 103 -72 103 -103 0 -32 -36
-59 -193 -144 -107 -58 -120 -63 -158 -57 -29 5 -54 19 -85 49 -38 37 -44 48
-44 85 0 51 19 98 53 130 65 59 239 81 324 40z m6351 -23 c19 -19 4 -45 -50
-89 -59 -48 -76 -51 -181 -33 -51 8 -173 20 -272 26 -190 12 -225 17 -225 31
0 33 180 68 355 70 61 0 133 5 160 9 67 11 196 2 213 -14z m-1208 -328 c36 -6
95 -12 132 -12 59 -1 70 -4 96 -29 16 -16 51 -35 78 -43 55 -17 277 -31 318
-20 27 7 28 9 21 55 -6 45 -5 50 15 56 28 9 78 -12 85 -36 3 -10 1 -28 -5 -39
-24 -45 10 -57 254 -91 228 -31 236 -37 236 -178 0 -104 -19 -131 -90 -131
-37 0 -67 -10 -128 -41 -95 -50 -158 -59 -217 -34 -30 12 -76 18 -180 20 -81
2 -168 10 -205 19 -74 18 -150 20 -198 7 -18 -6 -60 -35 -93 -65 -67 -62 -82
-66 -219 -47 -36 5 -106 12 -156 16 -127 10 -130 14 -66 76 62 61 68 80 48
140 -21 59 -20 91 5 166 21 61 21 64 4 77 -31 22 -217 29 -309 12 -91 -18
-116 -11 -116 33 0 48 58 81 165 94 74 9 466 6 525 -5z m-8275 -194 c22 -9 45
-57 45 -94 0 -21 -9 -41 -29 -61 -25 -25 -37 -29 -81 -29 -46 0 -56 4 -86 34
-58 58 -40 104 54 138 52 18 73 21 97 12z m3852 -54 c37 -22 123 -162 123
-199 0 -49 -146 -161 -210 -161 -58 0 -127 28 -159 65 -50 58 -55 193 -8 243
59 65 190 92 254 52z m-2193 -190 c44 -16 66 -46 66 -90 0 -54 -27 -71 -115
-72 -71 -1 -99 12 -139 65 -25 33 -14 75 24 94 30 15 128 17 164 3z m5385 -88
c14 -26 -12 -78 -48 -96 -40 -21 -79 -20 -118 4 -40 24 -45 63 -10 81 58 32
161 38 176 11z m-11049 -102 c0 -11 -17 -28 -42 -42 -35 -19 -44 -30 -48 -58
-4 -29 -12 -39 -50 -57 -56 -29 -103 -30 -131 -2 -16 16 -19 27 -13 47 5 15 8
46 9 69 0 23 5 47 10 52 10 10 173 19 233 12 23 -2 32 -8 32 -21z m525 -105
c88 -17 139 -42 143 -71 4 -28 -21 -47 -106 -79 -53 -21 -74 -34 -78 -50 -3
-12 6 -74 19 -138 l24 -116 -70 -86 c-38 -48 -78 -90 -90 -95 -22 -8 -22 -8
-2 -15 11 -4 52 -21 92 -37 47 -19 102 -33 160 -38 48 -5 104 -14 124 -20 20
-5 70 -9 110 -8 123 4 609 -14 609 -22 0 -50 -780 -91 -1135 -59 -276 24 -415
39 -437 48 -12 4 -43 11 -68 15 -76 12 -102 44 -89 112 5 24 16 55 25 70 20
29 25 29 153 -6 99 -27 149 -25 223 6 l62 26 44 -21 c24 -12 48 -19 53 -16 20
13 7 25 -37 36 -57 15 -65 32 -61 143 2 77 0 86 -27 125 l-29 42 36 73 c20 41
42 76 49 78 7 3 40 1 74 -5 101 -17 121 7 59 70 -19 20 -32 40 -29 44 8 14
114 11 199 -6z m-3750 -75 c19 -16 19 -64 0 -80 -13 -11 -27 -10 -75 5 -35 11
-73 16 -94 12 -20 -3 -38 -1 -42 5 -9 14 30 50 69 65 38 15 120 11 142 -7z
m9424 -15 c33 -16 41 -33 41 -81 0 -42 15 -74 34 -74 8 0 27 17 44 37 l29 37
44 -14 c62 -20 89 -50 89 -97 0 -65 18 -105 72 -160 59 -60 56 -77 -15 -88
-23 -4 -71 -18 -106 -31 -35 -13 -72 -24 -84 -24 -49 0 -104 27 -152 74 -27
28 -75 64 -105 81 -55 31 -55 31 -60 86 -3 30 -13 66 -23 79 -10 14 -29 40
-42 59 -28 38 -23 57 22 89 61 42 159 55 212 27z m976 -130 c67 -17 248 -121
242 -139 -6 -20 -160 -34 -351 -33 -173 2 -189 3 -202 21 -30 42 -7 123 44
150 37 20 190 21 267 1z m6435 -40 c7 -9 19 -64 28 -123 18 -131 8 -164 -62
-214 -25 -17 -46 -38 -46 -46 0 -8 14 -30 30 -49 35 -39 37 -54 13 -75 -37
-33 -59 -31 -105 10 -46 39 -123 72 -216 91 -115 24 -319 8 -415 -33 -18 -7
-51 -29 -72 -47 -34 -30 -45 -34 -91 -33 -44 1 -62 8 -101 36 -54 39 -93 54
-171 64 -30 4 -70 18 -95 34 -23 14 -63 33 -88 42 -44 15 -117 62 -168 108
-18 17 -22 28 -17 52 3 17 6 46 6 64 0 41 17 44 74 13 33 -17 42 -19 70 -8 17
6 83 13 146 15 99 2 119 0 146 -17 17 -10 45 -19 61 -19 37 0 83 34 83 61 0
11 11 31 25 44 20 21 34 25 80 25 31 0 64 -4 74 -9 25 -14 200 -41 260 -41 27
0 71 5 98 11 41 10 58 8 118 -10 94 -29 145 -22 202 30 34 31 50 39 82 39 22
0 44 -6 51 -15z m-11115 -59 c53 -35 35 -96 -33 -117 -35 -10 -46 -8 -128 27
-49 21 -98 44 -108 51 -18 12 -18 13 10 23 107 42 211 48 259 16z m-3688 -11
c22 -16 63 -125 63 -170 0 -55 -83 -56 -124 -2 -32 43 -21 153 18 179 15 11
19 10 43 -7z m12767 -39 c23 -24 60 -53 83 -65 44 -22 93 -90 93 -128 0 -25
-63 -84 -119 -113 -31 -15 -60 -20 -123 -20 -55 0 -105 -7 -146 -20 -35 -11
-74 -20 -86 -20 -35 0 -83 32 -116 78 -19 26 -45 48 -71 58 -31 13 -41 23 -46
46 -4 20 -19 38 -44 55 -41 27 -53 50 -43 77 10 26 57 19 100 -15 33 -26 45
-30 79 -26 22 3 81 10 130 16 129 16 145 20 155 44 30 80 27 77 72 77 36 0 47
-6 82 -44z m-9587 -306 c3 0 33 -58 33 -64 0 -35 -116 -50 -158 -20 -59 41 15
114 93 92 16 -4 31 -8 32 -8z"/>
<path d="M5225 3587 c-8 -19 -30 -45 -49 -57 -20 -12 -61 -50 -92 -86 -31 -35
-65 -64 -75 -64 -10 0 -41 20 -68 44 -54 48 -91 61 -149 51 -74 -12 -74 -18
11 -102 49 -50 81 -91 87 -113 15 -51 12 -123 -6 -158 -8 -18 -14 -44 -12 -59
4 -38 32 -32 83 17 22 21 57 45 77 53 39 16 69 62 83 127 11 51 23 70 93 145
34 37 62 73 63 79 2 36 12 64 30 89 29 40 22 61 -24 65 -34 3 -39 0 -52 -31z"/>
<path d="M4643 3178 c-51 -25 -54 -115 -5 -160 55 -51 92 -46 92 13 0 31 7 47
35 76 19 20 35 40 35 45 0 31 -108 50 -157 26z"/>
<path d="M5315 3176 c-49 -14 -53 -31 -25 -102 18 -42 27 -54 44 -54 36 0 96
79 96 124 0 43 -41 55 -115 32z"/>
<path d="M7005 2956 c-23 -35 -11 -216 14 -216 38 1 44 16 47 119 2 90 0 102
-16 111 -26 14 -27 13 -45 -14z"/>
<path d="M3550 6310 l0 -810 5975 0 5975 0 0 810 0 810 -5975 0 -5975 0 0
-810z m3059 523 c5 -21 12 -51 16 -68 l7 -30 9 25 c4 14 13 44 19 68 16 62 42
58 59 -10 21 -84 27 -86 41 -14 11 58 15 66 35 66 l23 0 -26 -100 c-23 -87
-29 -100 -47 -100 -18 0 -25 11 -40 63 l-17 62 -17 -60 c-14 -46 -22 -61 -38
-63 -14 -2 -23 3 -27 15 -14 49 -46 169 -46 175 0 5 9 8 20 8 14 0 22 -10 29
-37z m1691 10 c18 -23 19 -29 7 -31 -9 -2 -27 4 -40 13 -13 8 -32 13 -41 9
-27 -11 -14 -37 24 -47 98 -25 93 -117 -7 -117 -42 0 -83 25 -83 50 0 15 36
12 50 -5 16 -19 44 -19 59 -1 14 17 -1 30 -44 40 -42 10 -55 24 -55 57 0 59
91 82 130 32z m866 -53 l21 -75 23 78 c21 69 26 77 48 77 15 0 22 -5 19 -12
-2 -7 -17 -52 -33 -100 -26 -82 -30 -88 -55 -88 -26 0 -29 6 -58 93 -17 50
-31 96 -31 100 0 5 10 7 22 5 19 -2 26 -16 44 -78z m2224 -20 c0 -93 -1 -100
-20 -100 -11 0 -20 5 -20 12 0 9 -3 9 -12 0 -17 -17 -63 -15 -78 3 -22 26 -17
92 8 117 19 20 26 21 52 11 30 -11 30 -11 30 23 0 27 4 34 20 34 19 0 20 -7
20 -100z m-4453 28 c13 -12 23 -32 23 -45 0 -21 -4 -23 -50 -23 -28 0 -50 -5
-50 -10 0 -18 30 -23 56 -11 34 15 50 4 28 -20 -24 -26 -78 -25 -104 3 -26 28
-26 68 1 102 25 32 64 34 96 4z m390 0 c49 -46 17 -128 -50 -128 -44 0 -69 28
-69 76 0 67 70 98 119 52z m88 12 c4 -6 13 -5 25 3 16 9 24 9 41 -1 15 -10 24
-11 32 -3 15 15 50 14 65 -1 7 -7 12 -39 12 -75 0 -56 -2 -63 -20 -63 -18 0
-20 7 -20 56 0 52 -1 55 -22 52 -20 -3 -23 -10 -26 -55 -3 -45 -6 -53 -23 -53
-16 0 -19 7 -19 55 0 48 -2 55 -20 55 -18 0 -20 -7 -20 -55 0 -52 -1 -55 -25
-55 -24 0 -25 2 -25 68 0 38 3 72 7 75 10 10 31 8 38 -3z m313 -7 c12 -10 22
-29 24 -43 3 -23 0 -25 -44 -28 -48 -3 -63 -17 -32 -29 9 -3 25 -1 35 5 25 16
39 15 39 -3 0 -36 -86 -48 -114 -16 -11 12 -18 36 -18 57 0 64 64 96 110 57z
m326 -4 c52 -41 21 -129 -46 -129 -44 0 -68 25 -68 72 0 70 59 100 114 57z
m776 3 c28 -23 31 -83 5 -112 -25 -27 -78 -27 -105 2 -62 67 29 168 100 110z
m560 -2 c15 -15 20 -33 20 -74 l0 -54 -60 -1 c-49 0 -62 3 -70 20 -16 29 4 57
45 65 35 6 44 17 24 30 -6 3 -16 1 -22 -5 -12 -12 -47 -15 -47 -4 0 3 7 15 17
25 21 24 68 23 93 -2z m300 0 c11 -11 20 -31 20 -45 0 -23 -3 -25 -51 -25 -45
0 -50 -2 -39 -15 14 -17 46 -20 55 -5 8 13 35 13 35 1 0 -20 -33 -41 -65 -41
-24 0 -39 7 -54 26 -28 35 -26 69 4 99 29 30 68 32 95 5z m526 9 c4 -8 9 -8
17 0 31 31 87 -9 87 -62 0 -51 -26 -80 -66 -75 -29 3 -33 1 -36 -22 -2 -17 -9
-25 -23 -25 -18 0 -20 8 -23 84 -2 46 -1 90 2 98 6 16 32 17 42 2z m344 -9
c11 -11 20 -31 20 -45 0 -23 -3 -25 -51 -25 -45 0 -50 -2 -39 -15 14 -17 46
-20 55 -5 8 13 35 13 35 1 0 -20 -33 -41 -65 -41 -24 0 -39 7 -54 26 -28 35
-26 69 4 99 29 30 68 32 95 5z m85 10 c4 -6 13 -5 25 3 16 9 24 9 41 -1 15
-10 24 -11 32 -3 15 15 50 14 65 -1 7 -7 12 -39 12 -75 0 -56 -2 -63 -20 -63
-18 0 -20 7 -20 56 0 52 -1 55 -22 52 -20 -3 -23 -10 -26 -55 -3 -45 -6 -53
-23 -53 -16 0 -19 7 -19 55 0 48 -2 55 -20 55 -18 0 -20 -7 -20 -55 0 -52 -1
-55 -25 -55 -24 0 -25 2 -25 68 0 38 3 72 7 75 10 10 31 8 38 -3z m394 -16
c12 -15 21 -35 21 -45 0 -16 -8 -19 -50 -19 -28 0 -50 -5 -50 -10 0 -18 30
-23 56 -10 28 16 43 6 28 -18 -15 -24 -81 -28 -105 -6 -26 24 -25 81 3 111 29
31 71 30 97 -3z m708 4 c13 -12 23 -32 23 -45 0 -21 -4 -23 -50 -23 -28 0 -50
-5 -50 -10 0 -18 30 -23 56 -11 34 15 50 4 28 -20 -24 -26 -78 -25 -104 3 -26
28 -26 68 1 102 25 32 64 34 96 4z m373 2 c15 -15 20 -33 20 -75 0 -48 -2 -55
-20 -55 -11 0 -20 5 -20 10 0 6 -7 6 -18 -1 -11 -7 -31 -9 -46 -5 -24 6 -27
11 -24 39 3 29 7 33 46 42 38 10 42 13 28 24 -13 11 -19 11 -31 1 -8 -6 -22
-10 -32 -8 -16 3 -16 5 5 26 27 27 66 28 92 2z m249 3 c11 -10 22 -29 23 -43
3 -23 0 -25 -44 -28 -48 -3 -63 -17 -32 -29 9 -3 25 -1 35 5 25 16 39 15 39
-3 0 -36 -86 -48 -114 -16 -11 12 -18 36 -18 57 0 64 63 96 111 57z m-4846
-373 c37 -29 44 -73 17 -111 -12 -17 -33 -34 -46 -39 -34 -13 -82 7 -100 42
-43 83 56 165 129 108z"/>
</g>
</svg>
